<?xml version="1.0" standalone="no"?>
<!DOCTYPE svg PUBLIC "-//W3C//DTD SVG 1.1//EN" "http://www.w3.org/Graphics/SVG/1.1/DTD/svg11.dtd" >
<svg xmlns="http://www.w3.org/2000/svg">
<metadata>
This is a custom SVG webfont generated by Fontspring.
Designer    : Ray Larabie
Foundry     : Ray Larabie
Foundry URL : http://www.typodermic.com
</metadata>
<defs>
<font id="webfont" horiz-adv-x="262" >
<font-face units-per-em="1000" ascent="800" descent="-200" />
<missing-glyph horiz-adv-x="310" />
<glyph unicode="&#x28;C&#x29;" horiz-adv-x="741" d="M508 157h-168q-135 0 -135 140v94q0 140 135 140h168v-53h-168q-42 0 -62 -20t-20 -67v-94q0 -88 82 -88h168v-52zM630 138v411q0 86 -82 86h-356q-82 0 -82 -86v-410q0 -86 82 -86h356q82 0 82 85zM548 0h-356q-133 0 -133 139v410q0 139 133 139h356q135 0 135 -139 v-411q0 -138 -135 -138z" />
<glyph unicode="&#x28;R&#x29;" horiz-adv-x="741" d="M548 0h-356q-134 0 -134 139v410q0 139 134 139h356q134 0 134 -139v-411q0 -138 -134 -138zM630 138v411q0 86 -82 86h-356q-82 0 -82 -86v-410q0 -87 82 -87h356q82 0 82 86zM534 157h-64l-94 137h-95v-137h-53v374h201q101 0 101 -105v-34q0 -95 -97 -97zM478 389v37 q0 52 -58 52h-139v-140h139q58 0 58 51z" />
<glyph unicode=" "  horiz-adv-x="310" />
<glyph unicode="&#x09;" horiz-adv-x="310" />
<glyph unicode="&#xa0;" horiz-adv-x="310" />
<glyph unicode="!" horiz-adv-x="277" d="M177 224h-76l-31 263v201h137v-201zM201 0h-125v145h125v-145z" />
<glyph unicode="&#x22;" horiz-adv-x="400" d="M129 423h-54l-24 190v101h102v-101zM329 423h-54l-24 190v101h102v-101z" />
<glyph unicode="#" horiz-adv-x="703" d="M530 0h-94v153h-174v-153h-95v153h-132v94h132v195h-132v93h132v153h95v-153h174v153h94v-153h133v-93h-133v-195h133v-94h-133v-153zM436 247v195h-174v-195h174z" />
<glyph unicode="$" horiz-adv-x="661" d="M377 0h-78v77h-252v117h374q29 0 40 11.5t11 42.5t-11 43t-40 12h-185q-178 0 -178 124v64q0 74 42 100t143 26h56v71h78v-71h208v-116h-337q-28 0 -39 -11.5t-11 -41.5q0 -29 11 -40.5t39 -11.5h186q178 0 178 -124v-68q0 -75 -42 -101t-143 -26h-50v-77z" />
<glyph unicode="%" horiz-adv-x="1038" d="M331 354h-167q-62 0 -85.5 23.5t-23.5 87.5v121q0 64 23.5 88t85.5 24h167q61 0 85 -24t24 -88v-121q0 -63 -24 -87t-85 -24zM357 465v121q0 16 -5.5 22t-21.5 6h-165q-15 0 -21 -6t-6 -22v-121q0 -16 6 -22t21 -6h165q16 0 21.5 6t5.5 22zM314 0h-93l498 688h95z M873 -10h-167q-62 0 -85.5 23.5t-23.5 87.5v121q0 64 23.5 88t85.5 24h167q61 0 85 -24t24 -88v-121q0 -63 -24 -87t-85 -24zM899 101v121q0 16 -5.5 22t-21.5 6h-165q-15 0 -21 -6t-6 -22v-121q0 -16 6 -22t21 -6h165q16 0 21.5 6t5.5 22z" />
<glyph unicode="&#x26;" horiz-adv-x="790" d="M756 0h-179l-76 90q-41 -56 -76 -73t-87 -17h-78q-108 0 -158.5 54t-50.5 165v32q0 87 39 130.5t115 61.5l-127 152v93h479v-137h-275l225 -260l86 113h170l-174 -210zM418 191l-135 159q-55 -10 -76.5 -30t-21.5 -72v-18q0 -57 18.5 -80t63.5 -23h51q24 0 37.5 2 t32.5 17t30 45z" />
<glyph unicode="'" horiz-adv-x="200" d="M129 423h-54l-24 190v101h102v-101z" />
<glyph unicode="(" horiz-adv-x="327" d="M268 -77h-73q-120 200 -120 420t117 417h74q-126 -213 -126 -413q0 -217 128 -424z" />
<glyph unicode=")" horiz-adv-x="327" d="M132 -77h-73q127 208 127 419q0 209 -126 418h75q117 -200 117 -417q0 -221 -120 -420z" />
<glyph unicode="*" horiz-adv-x="497" d="M387 371l-59 -47l-79 111l-81 -113l-59 45l84 111l-134 47l21 69l133 -49v143h72v-143l129 49l25 -70l-133 -46z" />
<glyph unicode="+" horiz-adv-x="596" d="M537 321h-204v-204h-71v204h-204v71h204v204h71v-204h204v-71z" />
<glyph unicode="," horiz-adv-x="249" d="M111 -131l-45 23l41 108h-42v145h125v-130z" />
<glyph unicode="-" horiz-adv-x="324" d="M295 249h-266v87h266v-87z" />
<glyph unicode="." horiz-adv-x="241" d="M183 0h-124v145h124v-145z" />
<glyph unicode="/" horiz-adv-x="532" d="M40 -77h-80l484 765h82z" />
<glyph unicode="0" horiz-adv-x="874" d="M600 0h-327q-122 0 -168 47.5t-46 175.5v242q0 128 46 175.5t168 47.5h327q121 0 168 -47.5t47 -175.5v-242q0 -127 -47 -175t-168 -48zM680 223v242q0 51 -16.5 69t-63.5 18h-326q-48 0 -64.5 -18t-16.5 -69v-242q0 -51 16.5 -69t64.5 -18h326q47 0 63.5 18t16.5 69z " />
<glyph unicode="1" horiz-adv-x="348" d="M288 0h-135v543l-71 -50l-68 100l127 95h147v-688z" />
<glyph unicode="2" horiz-adv-x="792" d="M733 0h-686v209q0 101 52 146t177 45h241q52 0 68.5 15.5t16.5 58.5q0 49 -16 63.5t-72 14.5h-425v136h425q122 0 174 -45t52 -145v-43q0 -89 -47.5 -128.5t-166.5 -39.5h-250q-50 0 -70.5 -14.5t-20.5 -53.5v-84h548v-135z" />
<glyph unicode="3" horiz-adv-x="763" d="M505 0h-459v135h459q38 0 56 16.5t18 61.5q0 44 -19 61.5t-55 17.5h-268v85l217 174h-384v137h605v-124l-218 -168h41.5t40 -1.5t41.5 -4t37 -8t35 -13.5t27.5 -21t23.5 -29t13.5 -38.5t5.5 -49.5v-34q0 -97 -47.5 -147t-169.5 -50z" />
<glyph unicode="4" horiz-adv-x="730" d="M656 0h-130v119h-493v99l524 470h99v-459h52v-110h-52v-119zM526 229v278l-308 -278h308z" />
<glyph unicode="5" horiz-adv-x="786" d="M531 0h-477v135h471q45 0 62.5 17.5t17.5 64.5t-19 63.5t-71 16.5h-462v391h646v-136h-508v-141h324q122 0 175.5 -42t53.5 -132v-39q0 -103 -50 -150.5t-163 -47.5z" />
<glyph unicode="6" horiz-adv-x="856" d="M593 0h-298q-236 0 -236 220v217q0 134 54.5 192.5t181.5 58.5h459v-136h-425q-72 0 -103 -24t-31 -91v-105q44 94 155 94h243q120 0 169 -47.5t49 -128.5v-51q0 -98 -47.5 -148.5t-170.5 -50.5zM589 313h-290q-40 0 -69.5 -21.5t-29.5 -62.5q0 -94 96 -94h293 q47 0 66 21.5t19 69.5t-18.5 67.5t-66.5 19.5z" />
<glyph unicode="7" horiz-adv-x="735" d="M298 0h-171l400 552h-499v136h680v-94z" />
<glyph unicode="8" horiz-adv-x="844" d="M583 0h-322q-113 0 -161 39.5t-48 143.5v45q0 114 106 128q-90 15 -90 113v43q0 101 42.5 138.5t151.5 37.5h320q109 0 151.5 -37.5t42.5 -138.5v-43q0 -98 -90 -113q106 -14 106 -128v-45q0 -104 -48 -143.5t-161 -39.5zM658 199v23q0 39 -15 54t-56 15h-331 q-41 0 -55.5 -15t-14.5 -54v-23q0 -35 16 -49.5t59 -14.5h322q43 0 59 14.5t16 49.5zM642 469v24q0 33 -13 46t-47 13h-320q-34 0 -47 -13t-13 -46v-24q0 -35 13 -49.5t46 -14.5h322q32 0 45.5 14.5t13.5 49.5z" />
<glyph unicode="9" horiz-adv-x="860" d="M565 0h-486v136h452q72 0 103 24t31 91v105q-42 -95 -154 -95h-244q-120 0 -168.5 48t-48.5 129v51q0 98 47 148.5t170 50.5h298q237 0 237 -220v-217q0 -134 -55 -192.5t-182 -58.5zM564 553h-293q-47 0 -66 -21.5t-19 -69.5t18.5 -67.5t66.5 -19.5h291q40 0 69 21.5 t29 61.5q0 95 -96 95z" />
<glyph unicode=":" horiz-adv-x="265" d="M196 312h-124v146h124v-146zM196 0h-124v145h124v-145z" />
<glyph unicode=";" horiz-adv-x="267" d="M121 -131l-45 23l41 108h-42v145h126v-130zM200 312h-125v146h125v-146z" />
<glyph unicode="&#x3c;" horiz-adv-x="596" d="M538 75l-479 235v82l479 248v-77l-409 -211l409 -200v-77z" />
<glyph unicode="=" horiz-adv-x="596" d="M538 434h-479v71h479v-71zM538 211h-479v71h479v-71z" />
<glyph unicode="&#x3e;" horiz-adv-x="596" d="M538 310l-479 -235v77l408 200l-408 211v77l479 -248v-82z" />
<glyph unicode="?" horiz-adv-x="630" d="M397 306h-55q-37 0 -49.5 -9t-12.5 -43v-30h-123v21q0 93 43.5 129t140.5 36h42q41 0 60 15.5t19 54.5t-18.5 55t-60.5 16h-352v137h352q119 0 168 -40t49 -138v-29q0 -84 -46 -129.5t-157 -45.5zM281 0h-125v145h125v-145z" />
<glyph unicode="@" horiz-adv-x="763" d="M698 -126h-440q-200 0 -200 169v404q0 168 200 168h260q186 0 186 -181v-166q0 -142 -176 -142h-137q-131 0 -131 119v51q0 115 131 115h226v25q0 32 -7 51t-25 27.5t-35 10.5t-49 2h-249q-101 0 -101 -86v-393q0 -50 28 -68t99 -18h420v-88zM617 274v68h-215 q-49 0 -49 -60v-17q0 -59 49 -59h128q44 0 65.5 16t21.5 52z" />
<glyph unicode="A" horiz-adv-x="917" d="M906 0h-154l-86 160h-415l-86 -160h-154l377 688h141zM615 268l-156 285l-156 -285h312z" />
<glyph unicode="B" horiz-adv-x="864" d="M608 0h-548v688h548q109 0 151.5 -37.5t42.5 -138.5v-43q0 -98 -91 -113q49 -6 78 -37.5t29 -90.5v-45q0 -104 -48 -143.5t-162 -39.5zM684 199v25q0 39 -15 54t-56 15h-418v-158h413q43 0 59.5 14.5t16.5 49.5zM668 467v26q0 33 -13.5 46t-46.5 13h-413v-149h414 q32 0 45.5 14.5t13.5 49.5z" />
<glyph unicode="C" horiz-adv-x="870" d="M663 0h-390q-123 0 -168.5 47.5t-45.5 175.5v242q0 129 45.5 176t168.5 47h386q68 0 108.5 -31.5t56.5 -69.5l-86 -88q-24 53 -88 53h-376q-45 0 -63 -19t-18 -68v-243q0 -47 16 -67t65 -20h381q63 0 87 53l86 -87q-15 -38 -56 -69.5t-109 -31.5z" />
<glyph unicode="D" horiz-adv-x="911" d="M638 0h-579v688h579q124 0 170 -48t46 -175v-242q0 -127 -45.5 -175t-170.5 -48zM719 222v242q0 50 -18 69t-63 19h-443v-417h443q46 0 63.5 18t17.5 69z" />
<glyph unicode="E" horiz-adv-x="767" d="M721 0h-661v688h661v-136h-526v-152h511v-111h-511v-154h526v-135z" />
<glyph unicode="F" horiz-adv-x="743" d="M695 274h-500v-274h-135v688h646v-136h-511v-158h500v-120z" />
<glyph unicode="G" horiz-adv-x="871" d="M815 0h-114l-4 84q-7 -33 -42.5 -58.5t-89.5 -25.5h-292q-126 0 -170 46.5t-44 176.5v242q0 126 44.5 174.5t169.5 48.5h349q67 0 108 -31.5t56 -69.5l-85 -88q-26 53 -88 53h-339q-47 0 -64 -18t-17 -69v-222q0 -69 15.5 -88.5t65.5 -19.5h313q55 0 78 16t23 49v88h-258 v112h385v-400z" />
<glyph unicode="H" horiz-adv-x="797" d="M736 0h-133v284h-410v-284h-133v688h133v-280h410v280h133v-688z" />
<glyph unicode="I" d="M199 0h-135v688h135v-688z" />
<glyph unicode="J" horiz-adv-x="678" d="M413 0h-392v135h392q42 0 58 18.5t16 64.5v470h134v-470q0 -124 -44.5 -171t-163.5 -47z" />
<glyph unicode="K" horiz-adv-x="879" d="M867 0h-193l-271 270l-207 -186v-84h-136v688h136v-434l478 434h195l-373 -334z" />
<glyph unicode="L" horiz-adv-x="732" d="M713 0h-653v688h135v-552h518v-136z" />
<glyph unicode="M" horiz-adv-x="925" d="M867 0h-124v450l-218 -450h-125l-217 450v-450h-124v688h148l257 -550l258 550h145v-688z" />
<glyph unicode="N" horiz-adv-x="863" d="M806 0h-133l-485 507v-507h-129v688h145l472 -498v498h130v-688z" />
<glyph unicode="O" horiz-adv-x="911" d="M637 0h-363q-124 0 -169.5 47.5t-45.5 175.5v242q0 128 45.5 175.5t169.5 47.5h363q123 0 169 -48t46 -175v-242q0 -127 -46 -175t-169 -48zM717 222v242q0 50 -17.5 69t-63.5 19h-362q-46 0 -63.5 -19t-17.5 -69v-242q0 -51 17 -69t64 -18h362q47 0 64 18t17 69z" />
<glyph unicode="P" horiz-adv-x="819" d="M576 223h-381v-223h-135v688h516q119 0 163.5 -45t44.5 -164v-62q0 -107 -45.5 -150.5t-162.5 -43.5zM650 416v63q0 40 -16.5 56.5t-57.5 16.5h-381v-206h381q40 0 57 16.5t17 53.5z" />
<glyph unicode="Q" horiz-adv-x="911" d="M748 -96l-107 -60l-133 156h-234q-119 0 -167 50.5t-48 172.5v242q0 122 48 172.5t167 50.5h363q119 0 167 -50.5t48 -172.5v-242q0 -117 -42 -166.5t-150 -53.5zM717 222v242q0 50 -17.5 69t-63.5 19h-362q-46 0 -63.5 -19t-17.5 -69v-242q0 -51 17 -69t64 -18h362 q47 0 64 18t17 69z" />
<glyph unicode="R" horiz-adv-x="862" d="M840 0h-190l-238 225h-217v-225h-136v688h562q109 0 153 -48t44 -165v-42q0 -123 -50.5 -164.5t-182.5 -41.5zM684 419v33q0 55 -12.5 77t-54.5 22h-422v-213h422q36 0 51.5 18t15.5 63z" />
<glyph unicode="S" horiz-adv-x="810" d="M769 223v-24q0 -109 -50.5 -154t-173.5 -45h-486l9 135h468q55 0 74.5 16t19.5 60t-19 60t-72 16h-279q-121 0 -169.5 44t-48.5 141v23q0 104 49.5 148.5t172.5 44.5h482q-4 -40 -17 -137h-465q-49 0 -67 -17t-18 -58q0 -42 18.5 -59t66.5 -17h275q126 0 178 -42t52 -135 z" />
<glyph unicode="T" horiz-adv-x="681" d="M408 0h-135v552h-251v136h637v-136h-251v-552z" />
<glyph unicode="U" horiz-adv-x="868" d="M602 0h-336q-114 0 -160.5 50t-46.5 168v470h134v-470q0 -44 17 -63.5t56 -19.5h336q39 0 56 19.5t17 63.5v470h135v-470q0 -118 -47 -168t-161 -50z" />
<glyph unicode="V" horiz-adv-x="917" d="M528 0h-141l-376 688h161l286 -541l286 541h162z" />
<glyph unicode="W" horiz-adv-x="1198" d="M928 0h-146l-184 512l-189 -512h-145l-253 688h154l176 -528l189 528h136l185 -529l181 529h154z" />
<glyph unicode="X" horiz-adv-x="912" d="M900 0h-177l-272 267l-261 -267h-179l355 355l-349 333h188l250 -249l246 249h187l-348 -341z" />
<glyph unicode="Y" horiz-adv-x="809" d="M468 0h-135v253l-324 435h156l240 -322l238 322h157l-332 -435v-253z" />
<glyph unicode="Z" horiz-adv-x="786" d="M744 0h-701v123l487 437h-481v128h694v-119l-486 -441h487v-128z" />
<glyph unicode="[" horiz-adv-x="317" d="M260 -77h-168v837h168v-77h-93v-685h93v-75z" />
<glyph unicode="\" horiz-adv-x="533" d="M574 -77h-82l-485 765h81z" />
<glyph unicode="]" horiz-adv-x="316" d="M226 -77h-167v75h90v685h-90v77h167v-837z" />
<glyph unicode="^" horiz-adv-x="537" d="M478 349h-86l-122 260l-123 -260h-88l160 339h98z" />
<glyph unicode="_" horiz-adv-x="635" d="M629 -116h-622v68h622v-68z" />
<glyph unicode="`" horiz-adv-x="436" d="M369 596l-303 76v85l303 -99v-62z" />
<glyph unicode="a" horiz-adv-x="691" d="M401 0h-181q-94 0 -134 31.5t-40 100.5v59q0 68 40.5 98t131.5 30h186q59 0 97 -21v63q0 37 -22 49.5t-79 12.5h-312l13 117h316q122 0 168.5 -45t46.5 -125v-370q-33 0 -58.5 20.5t-32.5 64.5q-28 -85 -140 -85zM501 174v47q-38 15 -98 15h-163q-32 0 -46 -13t-14 -47 q0 -33 14 -46.5t45 -13.5h163q89 0 99 58z" />
<glyph unicode="b" horiz-adv-x="696" d="M429 0h-118q-135 0 -160 86q-5 -43 -30.5 -64.5t-60.5 -21.5v706l133 45v-289q22 42 51.5 60t77.5 18h107q115 0 162 -51.5t47 -164.5v-108q0 -113 -47 -164.5t-162 -51.5zM504 220v100q0 57 -15 80.5t-60 23.5h-157q-35 0 -53.5 -12t-25.5 -40v-190q14 -66 79 -66h157 q43 0 59 21.5t16 82.5z" />
<glyph unicode="c" horiz-adv-x="673" d="M493 0h-227q-207 0 -207 190v160q0 190 207 190h222q59 0 93.5 -27t47.5 -60l-73 -76q-23 47 -75 47h-215q-74 0 -74 -74v-160q0 -74 74 -74h220q54 0 75 46l74 -75q-14 -34 -48.5 -60.5t-93.5 -26.5z" />
<glyph unicode="d" horiz-adv-x="696" d="M384 0h-117q-115 0 -161.5 51.5t-46.5 164.5v108q0 113 46.5 164.5t161.5 51.5h106q48 0 77.5 -17.5t51.5 -60.5v244l134 45v-751q-35 0 -61 21.5t-30 64.5q-27 -86 -161 -86zM502 182v190q-7 28 -25 40t-53 12h-157q-44 0 -59.5 -23.5t-15.5 -80.5v-100 q0 -61 16.5 -82.5t58.5 -21.5h157q33 0 52.5 18t25.5 48z" />
<glyph unicode="e" horiz-adv-x="709" d="M625 0h-359q-207 0 -207 190v160q0 190 207 190h179q208 0 208 -190v-127h-461v-33q0 -74 74 -74h376zM519 307v36q0 44 -17 62.5t-57 18.5h-179q-39 0 -56.5 -17.5t-17.5 -56.5v-43h327z" />
<glyph unicode="f" horiz-adv-x="322" d="M203 0h-131v441h-62l16 99h46v15q0 193 213 202l16 -103q-53 -5 -75.5 -27t-22.5 -77v-10h113l-17 -99h-96v-441z" />
<glyph unicode="g" horiz-adv-x="704" d="M510 89v58q-25 -49 -58.5 -64.5t-101.5 -15.5h-93q-115 0 -161 48t-46 157v52q0 113 46.5 164.5t160.5 51.5h116q43 0 84 -17.5t58 -61.5v79h129v-451q0 -54 -10.5 -94.5t-37 -76.5t-79 -55t-129.5 -19q-76 0 -142 22l16 106q60 -18 121 -18q70 0 98.5 34t28.5 101z M510 224v148q-8 28 -25.5 39.5t-49.5 11.5h-169q-48 0 -65.5 -22t-17.5 -85v-36q0 -67 17.5 -87t64.5 -20h161q39 0 57.5 10.5t26.5 40.5z" />
<glyph unicode="h" horiz-adv-x="701" d="M642 0h-134v341q0 43 -16.5 63t-57.5 20h-174q-53 0 -67 -52v-372h-133v706l133 45v-289q22 42 51.5 60t77.5 18h112q115 0 161.5 -51.5t46.5 -164.5v-324z" />
<glyph unicode="i" d="M199 587h-135v143h135v-143zM198 0h-134v540h134v-540z" />
<glyph unicode="j" horiz-adv-x="380" d="M320 587h-135v143h135v-143zM-10 -134l17 127q41 -16 89 -16q51 0 70.5 33t19.5 95v435h133v-435q0 -46 -5 -81.5t-18.5 -70.5t-36.5 -58t-61 -37t-90 -14q-65 0 -118 22z" />
<glyph unicode="k" horiz-adv-x="678" d="M665 0h-172l-192 192l-108 -99v-93h-133v706l133 45v-507l309 296h165l-284 -268z" />
<glyph unicode="l" horiz-adv-x="254" d="M193 0h-133v706l133 45v-751z" />
<glyph unicode="m" horiz-adv-x="989" d="M932 0h-131v322q0 52 -14.5 77t-58.5 25h-97q-41 0 -58.5 -16t-17.5 -50v-358h-129v358q0 34 -17.5 50t-56.5 16h-95q-54 0 -67 -52v-372h-130v540h125v-78q37 78 133 78h42q78 0 121.5 -23.5t59.5 -78.5q29 102 152 102h47q111 0 151.5 -50.5t40.5 -165.5v-324z" />
<glyph unicode="n" horiz-adv-x="701" d="M642 0h-134v341q0 43 -16.5 63t-57.5 20h-174q-53 0 -67 -52v-372h-133v540h128v-78q22 42 51 60t77 18h118q115 0 161.5 -51.5t46.5 -164.5v-324z" />
<glyph unicode="o" horiz-adv-x="712" d="M445 0h-179q-109 0 -158 45t-49 145v160q0 100 49 145t158 45h179q110 0 159 -45t49 -145v-160q0 -100 -49 -145t-159 -45zM519 190v160q0 40 -17.5 57t-56.5 17h-179q-38 0 -56 -17t-18 -57v-160q0 -40 18 -57t56 -17h179q39 0 56.5 17t17.5 57z" />
<glyph unicode="p" horiz-adv-x="713" d="M446 0h-124q-48 0 -77.5 18t-51.5 60v-233h-133v695h128v-78q22 43 51.5 60.5t77.5 17.5h129q114 0 161 -51.5t47 -164.5v-108q0 -113 -47 -164.5t-161 -51.5zM520 220v100q0 57 -15 80.5t-59 23.5h-174q-35 0 -53.5 -12t-25.5 -40v-204q7 -28 25.5 -40t53.5 -12h174 q44 0 59 23.5t15 80.5z" />
<glyph unicode="q" horiz-adv-x="711" d="M653 -155h-134v233q-22 -43 -51.5 -60.5t-77.5 -17.5h-123q-115 0 -161.5 51.5t-46.5 164.5v108q0 113 46.5 164.5t161.5 51.5h129q48 0 77.5 -17.5t51.5 -60.5v78h128v-695zM519 168v204q-7 28 -25 40t-53 12h-174q-44 0 -59.5 -23.5t-15.5 -80.5v-100q0 -57 15.5 -80.5 t59.5 -23.5h174q35 0 53 12t25 40z" />
<glyph unicode="r" horiz-adv-x="409" d="M193 0h-134v540h129v-74q35 78 133 78q40 0 76 -16l-19 -120q-24 21 -82 21q-92 0 -103 -71v-358z" />
<glyph unicode="s" horiz-adv-x="666" d="M439 0h-399q7 38 19 116h374q29 0 42 12t13 45t-13 45t-42 12h-198q-94 0 -138 29t-44 96v58q0 72 44 99.5t145 27.5h368l-19 -117h-343q-29 0 -42 -12t-13 -44t13 -44t42 -12h198q93 0 137.5 -29.5t44.5 -95.5v-60q0 -72 -44 -99t-145 -27z" />
<glyph unicode="t" horiz-adv-x="375" d="M360 121l-20 -115q-26 -16 -79 -16q-99 0 -144.5 64.5t-45.5 195.5v191h-61l16 99h45v120l134 44v-164h112l-16 -99h-96v-191q0 -72 22.5 -107.5t72.5 -35.5q41 0 60 14z" />
<glyph unicode="u" horiz-adv-x="684" d="M375 0h-109q-114 0 -160.5 51.5t-46.5 164.5v324h133v-341q0 -42 17 -62.5t57 -20.5h158q54 0 67 55v369h134v-540q-35 0 -61 21.5t-30 64.5q-28 -86 -159 -86z" />
<glyph unicode="v" horiz-adv-x="684" d="M412 0h-141l-260 540h144l188 -419l187 419h143z" />
<glyph unicode="w" horiz-adv-x="950" d="M756 0h-158l-123 404l-122 -404h-161l-181 540h149l122 -419l125 419h137l127 -418l122 418h146z" />
<glyph unicode="x" horiz-adv-x="735" d="M724 0h-164l-196 199l-188 -199h-165l277 277l-276 263h170l182 -185l177 185h172l-274 -268z" />
<glyph unicode="y" horiz-adv-x="674" d="M276 25l-265 515h148l187 -400l175 400h142l-251 -526q-42 -87 -97.5 -128.5t-141.5 -41.5q-88 0 -137 23l62 126q39 -19 90 -19q61 0 88 51z" />
<glyph unicode="z" horiz-adv-x="608" d="M566 0h-523v106l327 323h-327v111h517v-101l-324 -329h330v-110z" />
<glyph unicode="{" horiz-adv-x="329" d="M271 -77h-39q-59 0 -84.5 29t-25.5 93v227q0 33 -63 33v67q63 2 63 32v233q0 65 26 94t84 29h39v-77q-44 0 -58.5 -10.5t-14.5 -41.5v-223q0 -28 -9.5 -45t-37.5 -24q28 -7 37.5 -23.5t9.5 -46.5v-218q0 -32 14 -42t59 -10v-76z" />
<glyph unicode="|" horiz-adv-x="269" d="M170 -77h-70v837h70v-837z" />
<glyph unicode="}" horiz-adv-x="329" d="M98 -77h-39v76q45 0 59 10t14 42v218q0 30 9.5 46.5t37.5 23.5q-28 7 -37.5 24t-9.5 45v223q0 31 -14.5 41.5t-58.5 10.5v77h39q58 0 84 -29t26 -94v-233q0 -30 63 -32v-67q-63 0 -63 -33v-227q0 -64 -25.5 -93t-84.5 -29z" />
<glyph unicode="~" horiz-adv-x="594" d="M535 416v-69q-51 -44 -139 -44q-38 0 -103.5 20.5t-96.5 20.5q-89 0 -137 -42v69q51 44 138 44q37 0 107.5 -20t106.5 -20q77 0 124 41z" />
<glyph unicode="&#xa1;" horiz-adv-x="277" d="M100 464h76l31 -263v-201h-137v201zM76 688h125v-145h-125v145z" />
<glyph unicode="&#xa2;" horiz-adv-x="650" d="M397 0h-78v76h-53q-207 0 -207 190v160q0 190 207 190h53v72h78v-72h59q57 0 92 -27t48 -59l-74 -76q-19 46 -74 46h-182q-74 0 -74 -74v-160q0 -72 74 -72h187q51 0 75 44l73 -75q-13 -33 -47.5 -60t-92.5 -27h-64v-76z" />
<glyph unicode="&#xa3;" horiz-adv-x="692" d="M646 0h-609v135h71v161h-66v107h66v117q0 168 201 168h337v-136h-337q-84 0 -84 -69v-80h256v-107h-256v-161h421v-135z" />
<glyph unicode="&#xa4;" horiz-adv-x="468" d="M343 342q0 43 -33.5 71.5t-75.5 28.5q-41 0 -75 -28.5t-34 -71.5t34 -72t75 -29q42 0 75.5 29t33.5 72zM374 173l-56 57q-38 -26 -84 -26t-84 26l-56 -57l-35 37l52 54q-29 36 -29 78t29 78l-52 54l35 37l56 -57q38 26 84 26t83 -26l57 57l36 -37l-53 -53q30 -37 30 -79 q0 -45 -30 -78l53 -54z" />
<glyph unicode="&#xa5;" horiz-adv-x="730" d="M657 82h-221v-82h-143v82h-221v70h221v117h-221v70h221v32l-275 317h159l187 -226l188 226h159l-275 -317v-32h221v-70h-221v-117h221v-70z" />
<glyph unicode="&#xa6;" horiz-adv-x="269" d="M170 -77h-70v370h70v-370zM170 760v-336h-70v336h70z" />
<glyph unicode="&#xa7;" horiz-adv-x="623" d="M381 -156h-303v108h285q58 0 81 14t23 54q0 43 -27 57.5t-86 14.5h-125q-88 0 -129.5 38.5t-41.5 124.5q0 46 20 81.5t57 50.5q-73 25 -73 133q0 168 179 168h300v-108h-300q-46 0 -65.5 -16t-19.5 -52q0 -44 26.5 -58.5t86.5 -14.5h125q87 0 128.5 -38.5t41.5 -124.5 q0 -100 -77 -133q74 -24 74 -133q0 -166 -180 -166zM224 194h159q41 0 66 17.5t25 54.5q0 71 -85 71h-148q-42 0 -67.5 -18t-25.5 -53t20 -53.5t56 -18.5z" />
<glyph unicode="&#xa8;" horiz-adv-x="504" d="M438 623h-111v142h111v-142zM176 623h-110v142h110v-142z" />
<glyph unicode="&#xaa;" horiz-adv-x="442" d="M246 300h-94q-53 0 -75.5 17.5t-22.5 55.5v33q0 70 96 70h97q26 0 46 -9v27q0 24 -37 24h-179l9 79h175q69 0 94.5 -25.5t25.5 -67.5v-204q-20 0 -37 11t-24 32q-13 -43 -74 -43zM293 401v22q-20 5 -42 5h-76q-17 0 -24 -5t-7 -20t7 -19.5t24 -4.5h76q21 0 30.5 4 t11.5 18z" />
<glyph unicode="&#xab;" horiz-adv-x="574" d="M118 340l140 -149l-47 -46l-183 195l183 194l47 -47zM405 340l140 -149l-47 -46l-183 195l183 194l47 -47z" />
<glyph unicode="&#xac;" horiz-adv-x="596" d="M538 109h-71v213h-408v72h479v-285z" />
<glyph unicode="&#xad;" horiz-adv-x="324" d="M295 249h-266v87h266v-87z" />
<glyph unicode="&#xaf;" horiz-adv-x="436" d="M369 646h-303v62h303v-62z" />
<glyph unicode="&#xb0;" horiz-adv-x="394" d="M283 556q0 88 -86 88q-87 0 -87 -87q0 -86 87 -86q86 0 86 85zM197 418q-138 0 -138 139q0 140 138 140q139 0 139 -140q0 -139 -139 -139z" />
<glyph unicode="&#xb1;" horiz-adv-x="596" d="M537 321h-204v-204h-71v204h-204v71h204v204h71v-204h204v-71zM537 11h-479v71h479v-71z" />
<glyph unicode="&#xb2;" horiz-adv-x="428" d="M385 354h-349v107q0 52 26.5 74.5t90.5 22.5h122q17 0 23 6t6 22t-6 22t-24 6h-216v84h216q62 0 88.5 -23t26.5 -75v-22q0 -45 -24 -65t-85 -20h-127q-31 0 -31 -26v-30h263v-83z" />
<glyph unicode="&#xb3;" horiz-adv-x="414" d="M380 472v-17q0 -50 -25 -75.5t-91 -25.5h-228v83h229q27 0 27 29q0 28 -27 28h-131v50l86 70h-172v84h308v-77l-87 -65q24 0 40.5 -3t34.5 -11t27 -25.5t9 -44.5z" />
<glyph unicode="&#xb4;" horiz-adv-x="436" d="M369 672l-303 -76v62l303 99v-85z" />
<glyph unicode="&#xb5;" horiz-adv-x="684" d="M374 0h-79q-76 0 -103 42v-198h-134v696h134v-342q0 -82 74 -82h158q28 0 45 15t21 40v369h134v-540q-37 0 -61.5 23.5t-28.5 61.5q-28 -85 -160 -85z" />
<glyph unicode="&#xb6;" horiz-adv-x="599" d="M540 -156h-93v701h-159v-701h-94v701h-168q0 143 139 143h375v-844z" />
<glyph unicode="&#xb7;" horiz-adv-x="241" d="M183 280h-124v145h124v-145z" />
<glyph unicode="&#xb8;" horiz-adv-x="246" d="M115 -262l-48 18l41 88h-45v125h137v-113z" />
<glyph unicode="&#xb9;" horiz-adv-x="222" d="M178 354h-83v255l-33 -23l-42 61l67 51h91v-344z" />
<glyph unicode="&#xba;" horiz-adv-x="453" d="M276 300h-100q-59 0 -87.5 25t-28.5 80v88q0 104 116 104h100q59 0 88 -25t29 -79v-88q0 -55 -28.5 -80t-88.5 -25zM302 405v88q0 25 -26 25h-100q-25 0 -25 -25v-88q0 -26 25 -26h100q26 0 26 26z" />
<glyph unicode="&#xbb;" horiz-adv-x="574" d="M76 145l-47 46l140 149l-140 147l47 47l183 -194zM363 145l-47 46l140 149l-140 147l47 47l183 -194z" />
<glyph unicode="&#xbc;" horiz-adv-x="802" d="M217 354h-83v255l-33 -23l-42 61l67 51h91v-344zM152 0h-93l498 688h95zM719 -10h-80v55h-237v60l256 229h61v-222h27v-67h-27v-55zM639 112v111l-123 -111h123z" />
<glyph unicode="&#xbd;" horiz-adv-x="868" d="M217 354h-83v255l-33 -23l-42 61l67 51h91v-344zM152 0h-93l498 688h95zM808 -10h-349v107q0 52 26.5 74.5t90.5 22.5h122q17 0 23 6t6 22t-6 22t-24 6h-216v84h216q62 0 88.5 -23t26.5 -75v-22q0 -45 -24 -65t-85 -20h-127q-31 0 -31 -26v-30h263v-83z" />
<glyph unicode="&#xbe;" horiz-adv-x="914" d="M399 472v-17q0 -50 -25 -75.5t-91 -25.5h-228v83h229q27 0 27 29q0 28 -27 28h-131v50l86 70h-172v84h308v-77l-87 -65q24 0 40.5 -3t34.5 -11t27 -25.5t9 -44.5zM274 0h-93l498 688h95zM831 -10h-80v55h-237v60l256 229h61v-222h27v-67h-27v-55zM751 112v111l-123 -111 h123z" />
<glyph unicode="&#xbf;" horiz-adv-x="630" d="M231 382h55q37 0 49.5 9t12.5 43v30h123v-21q0 -93 -43.5 -129t-140.5 -36h-42q-41 0 -60 -15.5t-19 -54.5t18.5 -55t60.5 -16h352v-137h-352q-119 0 -168 40t-49 138v29q0 84 46 129.5t157 45.5zM347 688h125v-145h-125v145z" />
<glyph unicode="&#xc0;" horiz-adv-x="917" d="M906 0h-154l-86 160h-415l-86 -160h-154l377 688h141zM615 268l-156 285l-156 -285h312zM581 744l-303 76v85l303 -99v-62z" />
<glyph unicode="&#xc1;" horiz-adv-x="917" d="M906 0h-154l-86 160h-415l-86 -160h-154l377 688h141zM615 268l-156 285l-156 -285h312zM640 820l-303 -76v62l303 99v-85z" />
<glyph unicode="&#xc2;" horiz-adv-x="917" d="M906 0h-154l-86 160h-415l-86 -160h-154l377 688h141zM615 268l-156 285l-156 -285h312zM621 744h-77l-84 140l-86 -140h-77l128 186h68z" />
<glyph unicode="&#xc3;" horiz-adv-x="917" d="M906 0h-154l-86 160h-415l-86 -160h-154l377 688h141zM615 268l-156 285l-156 -285h312zM611 877v-62q-32 -37 -88 -37q-24 0 -66 17t-61 17q-57 0 -88 -35v62q31 37 88 37q24 0 67.5 -16.5t66.5 -16.5q49 0 81 34z" />
<glyph unicode="&#xc4;" horiz-adv-x="917" d="M906 0h-154l-86 160h-415l-86 -160h-154l377 688h141zM615 268l-156 285l-156 -285h312zM645 771h-111v142h111v-142zM383 771h-110v142h110v-142z" />
<glyph unicode="&#xc5;" horiz-adv-x="917" d="M906 0h-154l-86 160h-415l-86 -160h-154l377 688h141zM615 268l-156 285l-156 -285h312zM530 791v48q0 36 -45 36h-52q-45 0 -45 -36v-48q0 -36 45 -36h52q45 0 45 36zM482 700h-47q-105 0 -105 89v52q0 89 105 89h47q106 0 106 -89v-52q0 -89 -106 -89z" />
<glyph unicode="&#xc6;" horiz-adv-x="1334" d="M1288 0h-618v158h-398l-112 -158h-163l503 688h788v-136h-482v-151h466v-114h-466v-152h482v-135zM670 267v286h-121l-200 -286h321z" />
<glyph unicode="&#xc7;" horiz-adv-x="870" d="M663 0h-390q-123 0 -168.5 47.5t-45.5 175.5v242q0 129 45.5 176t168.5 47h386q68 0 108.5 -31.5t56.5 -69.5l-86 -88q-24 53 -88 53h-376q-45 0 -63 -19t-18 -68v-243q0 -47 16 -67t65 -20h381q63 0 87 53l86 -87q-15 -38 -56 -69.5t-109 -31.5zM428 -262l-48 18l41 88 h-45v125h137v-113z" />
<glyph unicode="&#xc8;" horiz-adv-x="767" d="M721 0h-661v688h661v-136h-526v-152h511v-111h-511v-154h526v-135zM515 744l-303 76v85l303 -99v-62z" />
<glyph unicode="&#xc9;" horiz-adv-x="767" d="M721 0h-661v688h661v-136h-526v-152h511v-111h-511v-154h526v-135zM575 820l-303 -76v62l303 99v-85z" />
<glyph unicode="&#xca;" horiz-adv-x="767" d="M721 0h-661v688h661v-136h-526v-152h511v-111h-511v-154h526v-135zM555 744h-77l-84 140l-86 -140h-77l128 186h68z" />
<glyph unicode="&#xcb;" horiz-adv-x="767" d="M721 0h-661v688h661v-136h-526v-152h511v-111h-511v-154h526v-135zM579 771h-111v142h111v-142zM317 771h-110v142h110v-142z" />
<glyph unicode="&#xcc;" d="M199 0h-135v688h135v-688zM253 744l-303 76v85l303 -99v-62z" />
<glyph unicode="&#xcd;" d="M199 0h-135v688h135v-688zM313 820l-303 -76v62l303 99v-85z" />
<glyph unicode="&#xce;" d="M199 0h-135v688h135v-688zM293 744h-77l-84 140l-86 -140h-77l128 186h68z" />
<glyph unicode="&#xcf;" d="M199 0h-135v688h135v-688zM317 771h-111v142h111v-142zM55 771h-110v142h110v-142z" />
<glyph unicode="&#xd0;" horiz-adv-x="910" d="M636 0h-579v293h-51v102h51v293h579q124 0 170 -48t46 -175v-242q0 -127 -45.5 -175t-170.5 -48zM717 222v222q0 60 -15.5 83.5t-65.5 23.5h-443v-156h267v-102h-267v-158h443q47 0 64 18t17 69z" />
<glyph unicode="&#xd1;" horiz-adv-x="863" d="M806 0h-133l-485 507v-507h-129v688h145l472 -498v498h130v-688zM593 877v-62q-32 -37 -88 -37q-24 0 -66 17t-61 17q-57 0 -88 -35v62q31 37 88 37q24 0 67.5 -16.5t66.5 -16.5q49 0 81 34z" />
<glyph unicode="&#xd2;" horiz-adv-x="911" d="M637 0h-363q-124 0 -169.5 47.5t-45.5 175.5v242q0 128 45.5 175.5t169.5 47.5h363q123 0 169 -48t46 -175v-242q0 -127 -46 -175t-169 -48zM717 222v242q0 50 -17.5 69t-63.5 19h-362q-46 0 -63.5 -19t-17.5 -69v-242q0 -51 17 -69t64 -18h362q47 0 64 18t17 69z M577 744l-303 76v85l303 -99v-62z" />
<glyph unicode="&#xd3;" horiz-adv-x="911" d="M637 0h-363q-124 0 -169.5 47.5t-45.5 175.5v242q0 128 45.5 175.5t169.5 47.5h363q123 0 169 -48t46 -175v-242q0 -127 -46 -175t-169 -48zM717 222v242q0 50 -17.5 69t-63.5 19h-362q-46 0 -63.5 -19t-17.5 -69v-242q0 -51 17 -69t64 -18h362q47 0 64 18t17 69z M637 820l-303 -76v62l303 99v-85z" />
<glyph unicode="&#xd4;" horiz-adv-x="911" d="M637 0h-363q-124 0 -169.5 47.5t-45.5 175.5v242q0 128 45.5 175.5t169.5 47.5h363q123 0 169 -48t46 -175v-242q0 -127 -46 -175t-169 -48zM717 222v242q0 50 -17.5 69t-63.5 19h-362q-46 0 -63.5 -19t-17.5 -69v-242q0 -51 17 -69t64 -18h362q47 0 64 18t17 69z M617 744h-77l-84 140l-86 -140h-77l128 186h68z" />
<glyph unicode="&#xd5;" horiz-adv-x="911" d="M637 0h-363q-124 0 -169.5 47.5t-45.5 175.5v242q0 128 45.5 175.5t169.5 47.5h363q123 0 169 -48t46 -175v-242q0 -127 -46 -175t-169 -48zM717 222v242q0 50 -17.5 69t-63.5 19h-362q-46 0 -63.5 -19t-17.5 -69v-242q0 -51 17 -69t64 -18h362q47 0 64 18t17 69z M607 877v-62q-32 -37 -88 -37q-24 0 -66 17t-61 17q-57 0 -88 -35v62q31 37 88 37q24 0 67.5 -16.5t66.5 -16.5q49 0 81 34z" />
<glyph unicode="&#xd6;" horiz-adv-x="911" d="M637 0h-363q-124 0 -169.5 47.5t-45.5 175.5v242q0 128 45.5 175.5t169.5 47.5h363q123 0 169 -48t46 -175v-242q0 -127 -46 -175t-169 -48zM717 222v242q0 50 -17.5 69t-63.5 19h-362q-46 0 -63.5 -19t-17.5 -69v-242q0 -51 17 -69t64 -18h362q47 0 64 18t17 69z M641 771h-111v142h111v-142zM379 771h-110v142h110v-142z" />
<glyph unicode="&#xd7;" horiz-adv-x="596" d="M491 501l-144 -144l144 -145l-50 -50l-144 145l-144 -145l-50 50l144 145l-144 144l50 50l144 -144l144 144z" />
<glyph unicode="&#xd8;" horiz-adv-x="911" d="M637 0h-363q-28 0 -40 1l-60 -78h-94l72 94q-51 20 -72 68t-21 138v242q0 128 45.5 175.5t169.5 47.5h363q19 0 28 -1l57 74h95l-67 -87q55 -19 78.5 -68t23.5 -141v-242q0 -127 -46 -175t-169 -48zM717 222v242q0 45 -13.5 64t-47.5 23l-319 -416h299q47 0 64 18t17 69z M193 222q0 -42 11.5 -61.5t39.5 -23.5l318 415h-288q-46 0 -63.5 -19t-17.5 -69v-242z" />
<glyph unicode="&#xd9;" horiz-adv-x="868" d="M602 0h-336q-114 0 -160.5 50t-46.5 168v470h134v-470q0 -44 17 -63.5t56 -19.5h336q39 0 56 19.5t17 63.5v470h135v-470q0 -118 -47 -168t-161 -50zM555 744l-303 76v85l303 -99v-62z" />
<glyph unicode="&#xda;" horiz-adv-x="868" d="M602 0h-336q-114 0 -160.5 50t-46.5 168v470h134v-470q0 -44 17 -63.5t56 -19.5h336q39 0 56 19.5t17 63.5v470h135v-470q0 -118 -47 -168t-161 -50zM615 820l-303 -76v62l303 99v-85z" />
<glyph unicode="&#xdb;" horiz-adv-x="868" d="M602 0h-336q-114 0 -160.5 50t-46.5 168v470h134v-470q0 -44 17 -63.5t56 -19.5h336q39 0 56 19.5t17 63.5v470h135v-470q0 -118 -47 -168t-161 -50zM596 744h-77l-84 140l-86 -140h-77l128 186h68z" />
<glyph unicode="&#xdc;" horiz-adv-x="868" d="M602 0h-336q-114 0 -160.5 50t-46.5 168v470h134v-470q0 -44 17 -63.5t56 -19.5h336q39 0 56 19.5t17 63.5v470h135v-470q0 -118 -47 -168t-161 -50zM620 771h-111v142h111v-142zM358 771h-110v142h110v-142z" />
<glyph unicode="&#xdd;" horiz-adv-x="809" d="M468 0h-135v253l-324 435h156l240 -322l238 322h157l-332 -435v-253zM586 820l-303 -76v62l303 99v-85z" />
<glyph unicode="&#xde;" horiz-adv-x="818" d="M574 105h-381v-105h-134v688h134v-95h381q119 0 164 -47t45 -171v-68q0 -111 -46 -156.5t-163 -45.5zM649 306v69q0 45 -15.5 64t-59.5 19h-381v-230h381q43 0 59 19t16 59z" />
<glyph unicode="&#xdf;" horiz-adv-x="767" d="M503 0h-210v116h210q71 0 71 74v65q0 64 -59 64h-28q-78 0 -111.5 33.5t-33.5 112.5v106q0 36 -13.5 50t-44.5 14h-30q-32 0 -47.5 -14.5t-15.5 -50.5v-570h-131v569q0 182 188 182h46q88 0 126.5 -41t38.5 -139v-106q0 -30 28 -30h28q93 0 143 -41.5t50 -138.5v-65 q0 -190 -205 -190z" />
<glyph unicode="&#xe0;" horiz-adv-x="691" d="M401 0h-181q-94 0 -134 31.5t-40 100.5v59q0 68 40.5 98t131.5 30h186q59 0 97 -21v63q0 37 -22 49.5t-79 12.5h-312l13 117h316q122 0 168.5 -45t46.5 -125v-370q-33 0 -58.5 20.5t-32.5 64.5q-28 -85 -140 -85zM501 174v47q-38 15 -98 15h-163q-32 0 -46 -13t-14 -47 q0 -33 14 -46.5t45 -13.5h163q89 0 99 58zM467 596l-303 76v85l303 -99v-62z" />
<glyph unicode="&#xe1;" horiz-adv-x="691" d="M401 0h-181q-94 0 -134 31.5t-40 100.5v59q0 68 40.5 98t131.5 30h186q59 0 97 -21v63q0 37 -22 49.5t-79 12.5h-312l13 117h316q122 0 168.5 -45t46.5 -125v-370q-33 0 -58.5 20.5t-32.5 64.5q-28 -85 -140 -85zM501 174v47q-38 15 -98 15h-163q-32 0 -46 -13t-14 -47 q0 -33 14 -46.5t45 -13.5h163q89 0 99 58zM527 672l-303 -76v62l303 99v-85z" />
<glyph unicode="&#xe2;" horiz-adv-x="691" d="M401 0h-181q-94 0 -134 31.5t-40 100.5v59q0 68 40.5 98t131.5 30h186q59 0 97 -21v63q0 37 -22 49.5t-79 12.5h-312l13 117h316q122 0 168.5 -45t46.5 -125v-370q-33 0 -58.5 20.5t-32.5 64.5q-28 -85 -140 -85zM501 174v47q-38 15 -98 15h-163q-32 0 -46 -13t-14 -47 q0 -33 14 -46.5t45 -13.5h163q89 0 99 58zM517 596h-77l-84 140l-86 -140h-77l128 186h68z" />
<glyph unicode="&#xe3;" horiz-adv-x="691" d="M401 0h-181q-94 0 -134 31.5t-40 100.5v59q0 68 40.5 98t131.5 30h186q59 0 97 -21v63q0 37 -22 49.5t-79 12.5h-312l13 117h316q122 0 168.5 -45t46.5 -125v-370q-33 0 -58.5 20.5t-32.5 64.5q-28 -85 -140 -85zM501 174v47q-38 15 -98 15h-163q-32 0 -46 -13t-14 -47 q0 -33 14 -46.5t45 -13.5h163q89 0 99 58zM507 729v-62q-32 -37 -88 -37q-24 0 -66 17t-61 17q-57 0 -88 -35v62q31 37 88 37q24 0 67.5 -16.5t66.5 -16.5q49 0 81 34z" />
<glyph unicode="&#xe4;" horiz-adv-x="691" d="M401 0h-181q-94 0 -134 31.5t-40 100.5v59q0 68 40.5 98t131.5 30h186q59 0 97 -21v63q0 37 -22 49.5t-79 12.5h-312l13 117h316q122 0 168.5 -45t46.5 -125v-370q-33 0 -58.5 20.5t-32.5 64.5q-28 -85 -140 -85zM501 174v47q-38 15 -98 15h-163q-32 0 -46 -13t-14 -47 q0 -33 14 -46.5t45 -13.5h163q89 0 99 58zM541 623h-111v142h111v-142zM279 623h-110v142h110v-142z" />
<glyph unicode="&#xe5;" horiz-adv-x="691" d="M401 0h-181q-94 0 -134 31.5t-40 100.5v59q0 68 40.5 98t131.5 30h186q59 0 97 -21v63q0 37 -22 49.5t-79 12.5h-312l13 117h316q122 0 168.5 -45t46.5 -125v-370q-33 0 -58.5 20.5t-32.5 64.5q-28 -85 -140 -85zM501 174v47q-38 15 -98 15h-163q-32 0 -46 -13t-14 -47 q0 -33 14 -46.5t45 -13.5h163q89 0 99 58zM426 643v48q0 36 -45 36h-52q-45 0 -45 -36v-48q0 -36 45 -36h52q45 0 45 36zM378 552h-47q-105 0 -105 89v52q0 89 105 89h47q106 0 106 -89v-52q0 -89 -106 -89z" />
<glyph unicode="&#xe6;" horiz-adv-x="1152" d="M1067 0h-358q-125 0 -174 69q-36 -69 -134 -69h-181q-93 0 -133.5 31.5t-40.5 100.5v59q0 68 41 98t131 30h186q59 0 97 -21v64q0 33 -18.5 47t-63.5 14h-331l13 117h316q99 0 153 -37q50 37 139 37h179q208 0 208 -190v-128h-461v-32q0 -46 23 -60t72 -14h355zM501 174 v44q-34 14 -96 14h-174q-27 0 -39 -13.5t-12 -44.5q0 -58 51 -58h173q87 0 97 58zM962 309v29q0 45 -17 65t-57 20h-167q-47 0 -66.5 -16t-19.5 -57v-41h327z" />
<glyph unicode="&#xe7;" horiz-adv-x="673" d="M493 0h-227q-207 0 -207 190v160q0 190 207 190h222q59 0 93.5 -27t47.5 -60l-73 -76q-23 47 -75 47h-215q-74 0 -74 -74v-160q0 -74 74 -74h220q54 0 75 46l74 -75q-14 -34 -48.5 -60.5t-93.5 -26.5zM320 -262l-48 18l41 88h-45v125h137v-113z" />
<glyph unicode="&#xe8;" horiz-adv-x="709" d="M625 0h-359q-207 0 -207 190v160q0 190 207 190h179q208 0 208 -190v-127h-461v-33q0 -74 74 -74h376zM519 307v36q0 44 -17 62.5t-57 18.5h-179q-39 0 -56.5 -17.5t-17.5 -56.5v-43h327zM476 596l-303 76v85l303 -99v-62z" />
<glyph unicode="&#xe9;" horiz-adv-x="709" d="M625 0h-359q-207 0 -207 190v160q0 190 207 190h179q208 0 208 -190v-127h-461v-33q0 -74 74 -74h376zM519 307v36q0 44 -17 62.5t-57 18.5h-179q-39 0 -56.5 -17.5t-17.5 -56.5v-43h327zM536 672l-303 -76v62l303 99v-85z" />
<glyph unicode="&#xea;" horiz-adv-x="709" d="M625 0h-359q-207 0 -207 190v160q0 190 207 190h179q208 0 208 -190v-127h-461v-33q0 -74 74 -74h376zM519 307v36q0 44 -17 62.5t-57 18.5h-179q-39 0 -56.5 -17.5t-17.5 -56.5v-43h327zM516 596h-77l-84 140l-86 -140h-77l128 186h68z" />
<glyph unicode="&#xeb;" horiz-adv-x="709" d="M625 0h-359q-207 0 -207 190v160q0 190 207 190h179q208 0 208 -190v-127h-461v-33q0 -74 74 -74h376zM519 307v36q0 44 -17 62.5t-57 18.5h-179q-39 0 -56.5 -17.5t-17.5 -56.5v-43h327zM540 623h-111v142h111v-142zM278 623h-110v142h110v-142z" />
<glyph unicode="&#xec;" d="M198 0h-134v540h134v-540zM253 596l-303 76v85l303 -99v-62z" />
<glyph unicode="&#xed;" d="M198 0h-134v540h134v-540zM313 672l-303 -76v62l303 99v-85z" />
<glyph unicode="&#xee;" d="M198 0h-134v540h134v-540zM293 596h-77l-84 140l-86 -140h-77l128 186h68z" />
<glyph unicode="&#xef;" d="M198 0h-134v540h134v-540zM317 623h-111v142h111v-142zM55 623h-110v142h110v-142z" />
<glyph unicode="&#xf0;" horiz-adv-x="712" d="M283 761q127 0 224 -65l115 64l23 -40l-97 -54q104 -92 104 -243v-233q0 -97 -51.5 -143.5t-155.5 -46.5h-179q-208 0 -208 190v106q0 88 52 123t156 35h130q91 0 123 -59v45q0 102 -80 167l-189 -103l-25 39l169 92q-60 33 -158 34zM519 190v93q-13 47 -35 62t-79 15 h-131q-48 0 -65 -16t-17 -57v-70q0 -63 17.5 -82t65.5 -19h160q47 0 65.5 15.5t18.5 58.5z" />
<glyph unicode="&#xf1;" horiz-adv-x="701" d="M642 0h-134v341q0 43 -16.5 63t-57.5 20h-174q-53 0 -67 -52v-372h-133v540h128v-78q22 42 51 60t77 18h118q115 0 161.5 -51.5t46.5 -164.5v-324zM522 729v-62q-32 -37 -88 -37q-24 0 -66 17t-61 17q-57 0 -88 -35v62q31 37 88 37q24 0 67.5 -16.5t66.5 -16.5 q49 0 81 34z" />
<glyph unicode="&#xf2;" horiz-adv-x="712" d="M445 0h-179q-109 0 -158 45t-49 145v160q0 100 49 145t158 45h179q110 0 159 -45t49 -145v-160q0 -100 -49 -145t-159 -45zM519 190v160q0 40 -17.5 57t-56.5 17h-179q-38 0 -56 -17t-18 -57v-160q0 -40 18 -57t56 -17h179q39 0 56.5 17t17.5 57zM477 596l-303 76v85 l303 -99v-62z" />
<glyph unicode="&#xf3;" horiz-adv-x="712" d="M445 0h-179q-109 0 -158 45t-49 145v160q0 100 49 145t158 45h179q110 0 159 -45t49 -145v-160q0 -100 -49 -145t-159 -45zM519 190v160q0 40 -17.5 57t-56.5 17h-179q-38 0 -56 -17t-18 -57v-160q0 -40 18 -57t56 -17h179q39 0 56.5 17t17.5 57zM537 672l-303 -76v62 l303 99v-85z" />
<glyph unicode="&#xf4;" horiz-adv-x="712" d="M445 0h-179q-109 0 -158 45t-49 145v160q0 100 49 145t158 45h179q110 0 159 -45t49 -145v-160q0 -100 -49 -145t-159 -45zM519 190v160q0 40 -17.5 57t-56.5 17h-179q-38 0 -56 -17t-18 -57v-160q0 -40 18 -57t56 -17h179q39 0 56.5 17t17.5 57zM518 596h-77l-84 140 l-86 -140h-77l128 186h68z" />
<glyph unicode="&#xf5;" horiz-adv-x="712" d="M445 0h-179q-109 0 -158 45t-49 145v160q0 100 49 145t158 45h179q110 0 159 -45t49 -145v-160q0 -100 -49 -145t-159 -45zM519 190v160q0 40 -17.5 57t-56.5 17h-179q-38 0 -56 -17t-18 -57v-160q0 -40 18 -57t56 -17h179q39 0 56.5 17t17.5 57zM507 729v-62 q-32 -37 -88 -37q-24 0 -66 17t-61 17q-57 0 -88 -35v62q31 37 88 37q24 0 67.5 -16.5t66.5 -16.5q49 0 81 34z" />
<glyph unicode="&#xf6;" horiz-adv-x="712" d="M445 0h-179q-109 0 -158 45t-49 145v160q0 100 49 145t158 45h179q110 0 159 -45t49 -145v-160q0 -100 -49 -145t-159 -45zM519 190v160q0 40 -17.5 57t-56.5 17h-179q-38 0 -56 -17t-18 -57v-160q0 -40 18 -57t56 -17h179q39 0 56.5 17t17.5 57zM542 623h-111v142h111 v-142zM280 623h-110v142h110v-142z" />
<glyph unicode="&#xf7;" horiz-adv-x="596" d="M537 321h-479v71h479v-71zM360 492h-124v145h124v-145zM360 76h-124v145h124v-145z" />
<glyph unicode="&#xf8;" horiz-adv-x="712" d="M445 0h-175l-39 -77h-94l43 86q-63 15 -92 59t-29 122v160q0 100 49 145t158 45h184l46 89h95l-51 -100q113 -32 113 -179v-160q0 -100 -49 -145t-159 -45zM192 190q0 -61 44 -71l155 305h-125q-38 0 -56 -17t-18 -57v-160zM519 190v160q0 55 -36 68l-154 -302h116 q39 0 56.5 17t17.5 57z" />
<glyph unicode="&#xf9;" horiz-adv-x="684" d="M375 0h-109q-114 0 -160.5 51.5t-46.5 164.5v324h133v-341q0 -42 17 -62.5t57 -20.5h158q54 0 67 55v369h134v-540q-35 0 -61 21.5t-30 64.5q-28 -86 -159 -86zM463 596l-303 76v85l303 -99v-62z" />
<glyph unicode="&#xfa;" horiz-adv-x="684" d="M375 0h-109q-114 0 -160.5 51.5t-46.5 164.5v324h133v-341q0 -42 17 -62.5t57 -20.5h158q54 0 67 55v369h134v-540q-35 0 -61 21.5t-30 64.5q-28 -86 -159 -86zM523 672l-303 -76v62l303 99v-85z" />
<glyph unicode="&#xfb;" horiz-adv-x="684" d="M375 0h-109q-114 0 -160.5 51.5t-46.5 164.5v324h133v-341q0 -42 17 -62.5t57 -20.5h158q54 0 67 55v369h134v-540q-35 0 -61 21.5t-30 64.5q-28 -86 -159 -86zM504 596h-77l-84 140l-86 -140h-77l128 186h68z" />
<glyph unicode="&#xfc;" horiz-adv-x="684" d="M375 0h-109q-114 0 -160.5 51.5t-46.5 164.5v324h133v-341q0 -42 17 -62.5t57 -20.5h158q54 0 67 55v369h134v-540q-35 0 -61 21.5t-30 64.5q-28 -86 -159 -86zM528 623h-111v142h111v-142zM266 623h-110v142h110v-142z" />
<glyph unicode="&#xfd;" horiz-adv-x="674" d="M276 25l-265 515h148l187 -400l175 400h142l-251 -526q-42 -87 -97.5 -128.5t-141.5 -41.5q-88 0 -137 23l62 126q39 -19 90 -19q61 0 88 51zM528 672l-303 -76v62l303 99v-85z" />
<glyph unicode="&#xfe;" horiz-adv-x="713" d="M445 0h-123q-48 0 -77.5 17.5t-51.5 60.5v-234h-134v862l134 44v-289q22 43 51.5 61t77.5 18h123q114 0 161 -50.5t47 -157.5v-125q0 -107 -47 -157t-161 -50zM520 198v132q0 53 -18 73t-67 20h-165q-35 0 -52.5 -11t-24.5 -40v-205q7 -29 24.5 -40t52.5 -11h165 q46 0 65.5 19t19.5 63z" />
<glyph unicode="&#xff;" horiz-adv-x="674" d="M276 25l-265 515h148l187 -400l175 400h142l-251 -526q-42 -87 -97.5 -128.5t-141.5 -41.5q-88 0 -137 23l62 126q39 -19 90 -19q61 0 88 51zM533 623h-111v142h111v-142zM271 623h-110v142h110v-142z" />
<glyph unicode="&#x152;" horiz-adv-x="1313" d="M59 465q0 129 44.5 176t169.5 47h994v-136h-478v-151h463v-114h-463v-152h478v-135h-994q-124 0 -169 48t-45 175v242zM193 243q0 -60 15 -84t66 -24h379v417h-379q-46 0 -63.5 -19t-17.5 -68v-222z" />
<glyph unicode="&#x153;" horiz-adv-x="1169" d="M1085 0h-358q-89 0 -139 35q-47 -35 -143 -35h-179q-109 0 -158 45t-49 145v160q0 100 49 145t158 45h179q94 0 143 -35q52 35 139 35h179q207 0 207 -190v-127h-460v-37q0 -70 74 -70h375zM519 190v160q0 40 -17.5 57t-56.5 17h-179q-38 0 -56 -17t-18 -57v-160 q0 -40 18 -57t56 -17h179q39 0 56.5 17t17.5 57zM980 307v36q0 43 -17.5 62t-56.5 19h-179q-39 0 -56.5 -17.5t-17.5 -56.5v-43h327z" />
<glyph unicode="&#x178;" horiz-adv-x="809" d="M468 0h-135v253l-324 435h156l240 -322l238 322h157l-332 -435v-253zM591 771h-111v142h111v-142zM329 771h-110v142h110v-142z" />
<glyph unicode="&#x2c6;" horiz-adv-x="456" d="M390 596h-77l-84 140l-86 -140h-77l128 186h68z" />
<glyph unicode="&#x2dc;" horiz-adv-x="436" d="M369 729v-62q-32 -37 -88 -37q-24 0 -66 17t-61 17q-57 0 -88 -35v62q31 37 88 37q24 0 67.5 -16.5t66.5 -16.5q49 0 81 34z" />
<glyph unicode="&#x2000;" horiz-adv-x="465" />
<glyph unicode="&#x2001;" horiz-adv-x="930" />
<glyph unicode="&#x2002;" horiz-adv-x="465" />
<glyph unicode="&#x2003;" horiz-adv-x="930" />
<glyph unicode="&#x2004;" horiz-adv-x="310" />
<glyph unicode="&#x2005;" horiz-adv-x="232" />
<glyph unicode="&#x2006;" horiz-adv-x="155" />
<glyph unicode="&#x2007;" horiz-adv-x="155" />
<glyph unicode="&#x2008;" horiz-adv-x="116" />
<glyph unicode="&#x2009;" horiz-adv-x="186" />
<glyph unicode="&#x200a;" horiz-adv-x="51" />
<glyph unicode="&#x2010;" horiz-adv-x="324" d="M295 249h-266v87h266v-87z" />
<glyph unicode="&#x2011;" horiz-adv-x="324" d="M295 249h-266v87h266v-87z" />
<glyph unicode="&#x2013;" horiz-adv-x="428" d="M400 249h-371v87h371v-87z" />
<glyph unicode="&#x2014;" horiz-adv-x="685" d="M658 249h-629v87h629v-87z" />
<glyph unicode="&#x2018;" horiz-adv-x="230" d="M176 523h-125v130l80 146l45 -24l-41 -107h41v-145z" />
<glyph unicode="&#x2019;" horiz-adv-x="230" d="M103 437l-44 22l40 109h-40v145h125v-131z" />
<glyph unicode="&#x201a;" horiz-adv-x="230" d="M103 -131l-44 23l40 108h-40v145h125v-130z" />
<glyph unicode="&#x201c;" horiz-adv-x="460" d="M176 523h-125v130l80 146l45 -24l-41 -107h41v-145zM406 523h-125v130l80 146l45 -24l-41 -107h41v-145z" />
<glyph unicode="&#x201d;" horiz-adv-x="460" d="M103 437l-44 22l40 109h-40v145h125v-131zM333 437l-44 22l40 109h-40v145h125v-131z" />
<glyph unicode="&#x201e;" horiz-adv-x="460" d="M103 -131l-44 23l40 108h-40v145h125v-130zM333 -131l-44 23l40 108h-40v145h125v-130z" />
<glyph unicode="&#x2022;" horiz-adv-x="383" d="M54 331q0 66 36.5 101t99.5 35t100 -35t37 -101t-37 -101t-100 -35t-99.5 35t-36.5 101z" />
<glyph unicode="&#x2026;" horiz-adv-x="1205" d="M183 0h-124v145h124v-145zM665 0h-124v145h124v-145zM1147 0h-124v145h124v-145z" />
<glyph unicode="&#x202f;" horiz-adv-x="186" />
<glyph unicode="&#x2039;" horiz-adv-x="287" d="M118 340l140 -149l-47 -46l-183 195l183 194l47 -47z" />
<glyph unicode="&#x203a;" horiz-adv-x="287" d="M76 145l-47 46l140 149l-140 147l47 47l183 -194z" />
<glyph unicode="&#x205f;" horiz-adv-x="232" />
<glyph unicode="&#x20ac;" horiz-adv-x="759" d="M89 465q0 129 44.5 176t169.5 47h440l-77 -136h-362q-45 0 -63 -19.5t-18 -67.5v-20h383l-40 -71h-343v-55h313l-40 -71h-273v-25q0 -50 17.5 -69t62.5 -19h398v-135h-398q-124 0 -169 48t-45 175v25h-67l12 71h55v55h-67l12 71h55v20z" />
<glyph unicode="&#x2122;" horiz-adv-x="769" d="M203 328h-57v305h-103v55h260v-55h-100v-305zM711 328h-56v247l-98 -247h-44l-97 246v-246h-56v360h70l105 -260l106 260h70v-360z" />
</font>
</defs>
</svg>
